<svg width="74" height="63" viewBox="0 0 74 63" fill="none" xmlns="http://www.w3.org/2000/svg">
<g filter="url(#filter0_d_121_13)">
<path fill-rule="evenodd" clip-rule="evenodd" d="M36.9833 10C30.8611 10 27.0473 13.8841 25.5084 21.6524C27.8167 17.7683 30.4931 16.3171 33.5709 17.2561C35.3105 17.811 36.5818 19.4329 37.9535 21.1829C40.1949 24.128 42.8044 27.5 48.4916 27.5C54.6138 27.5 58.4611 23.6159 60 15.8476C57.6916 19.7317 55.0153 21.1829 51.9709 20.2012C50.2313 19.6463 48.96 18.0244 47.5884 16.2744C45.3135 13.372 42.704 10 36.9833 10ZM25.5084 27.5C19.3527 27.5 15.5389 31.3841 14 39.1524C16.3084 35.2683 18.9847 33.8171 22.0625 34.7561C23.8022 35.311 25.0735 36.9329 26.4451 38.6829C28.6865 41.628 31.296 45 36.9833 45C43.1055 45 46.9527 41.1159 48.4916 33.3476C46.1833 37.2317 43.5069 38.6829 40.4291 37.7012C38.6895 37.1463 37.4182 35.5244 36.0465 33.7744C33.8051 30.872 31.1956 27.5 25.5084 27.5Z" fill="#38BDF8"/>
</g>
<defs>
<filter id="filter0_d_121_13" x="0" y="0" width="74" height="63" filterUnits="userSpaceOnUse" color-interpolation-filters="sRGB">
<feFlood flood-opacity="0" result="BackgroundImageFix"/>
<feColorMatrix in="SourceAlpha" type="matrix" values="0 0 0 0 0 0 0 0 0 0 0 0 0 0 0 0 0 0 127 0" result="hardAlpha"/>
<feOffset dy="4"/>
<feGaussianBlur stdDeviation="7"/>
<feComposite in2="hardAlpha" operator="out"/>
<feColorMatrix type="matrix" values="0 0 0 0 0.603966 0 0 0 0 0.759615 0 0 0 0 0.9375 0 0 0 1 0"/>
<feBlend mode="normal" in2="BackgroundImageFix" result="effect1_dropShadow_121_13"/>
<feBlend mode="normal" in="SourceGraphic" in2="effect1_dropShadow_121_13" result="shape"/>
</filter>
</defs>
</svg>
