<svg width="40" height="39" viewBox="0 0 40 39" fill="none" xmlns="http://www.w3.org/2000/svg">
<path d="M0.0647278 9.80293C0.0647278 4.45177 4.53778 0.105835 10.0474 0.105835H30.0158C35.527 0.105835 40 4.45025 40 9.80293V29.1956C40 34.5483 35.527 38.8927 30.0158 38.8927H10.0474C4.53778 38.8942 0.0647278 34.5483 0.0647278 29.1971V9.80293Z" fill="#FFDD33"/>
<path fill-rule="evenodd" clip-rule="evenodd" d="M26.612 7.50525H22.9902L26.0127 12.6599L19.367 7.50525H15.7453L19.0682 13.8012L12.1236 7.50525H8.50186L12.1236 15.5259L8.50186 31.5658H12.1236L19.0682 14.3847L15.7453 31.5658H19.367L26.0127 13.2343L22.9902 31.5658H26.612L33.2577 11.5186L26.612 7.51281V7.50525Z" fill="#1C1C1E"/>
</svg>
