<svg width="72" height="72" viewBox="0 0 72 72" fill="none" xmlns="http://www.w3.org/2000/svg">
<g filter="url(#filter0_d_122_145)">
<path d="M51.0857 40.0437C51.464 39.7924 51.6979 39.3268 51.6993 38.8221L51.7213 30.6399C51.7227 30.1352 51.9565 29.6696 52.3348 29.4183L56.1691 26.8704C56.5473 26.6192 57.0125 26.6201 57.39 26.8728C57.7675 27.1255 58 27.5918 58 28.0963V42.9719C58 43.4781 57.7659 43.9457 57.3864 44.1978L42.9161 53.8123C42.5401 54.0621 42.0777 54.0626 41.7012 53.8137L30.3452 46.3002C29.9644 46.0486 29.7294 45.5803 29.7292 45.073V37.5722C29.7292 37.5638 29.7378 37.5581 29.7451 37.5623C29.7512 37.5666 29.7598 37.5623 29.7598 37.5524V37.544C29.7598 37.5383 29.7622 37.5326 29.7671 37.5298L39.1198 31.3143C39.1284 31.3087 39.1247 31.2931 39.1149 31.2931C39.1095 31.2931 39.1051 31.288 39.1051 31.2818L39.1235 23.9281C39.1252 23.4219 38.8929 22.9533 38.5145 22.6994C38.136 22.4455 37.669 22.4449 37.2901 22.698L30.3391 27.3314C29.9616 27.5828 29.4969 27.5828 29.1193 27.3314L22.1463 22.6867C21.7683 22.4348 21.3028 22.4352 20.925 22.6877C20.5472 22.9402 20.3144 23.4064 20.3142 23.9111V37.2018C20.3145 37.7059 20.0827 38.1721 19.7058 38.4254C19.329 38.6786 18.8641 38.6805 18.4857 38.4305L14.616 35.8713C14.2345 35.6192 13.9993 35.1495 14 34.6412L14.0342 11.4108C14.0352 10.9068 14.268 10.4415 14.6453 10.1895C15.0226 9.93744 15.4873 9.9368 15.8652 10.1878L29.1205 18.995C29.4975 19.2454 29.961 19.2454 30.3379 18.995L43.5896 10.1878C43.968 9.93643 44.4335 9.93747 44.8111 10.1905C45.1886 10.4436 45.4209 10.9103 45.4205 11.4151V34.6511C45.4207 35.157 45.1872 35.6245 44.8082 35.877L37.8682 40.5004C37.4888 40.7535 37.2554 41.222 37.2564 41.7286C37.2574 42.2353 37.4927 42.7025 37.8731 42.9535L41.7012 45.4745C42.0776 45.7224 42.5394 45.7214 42.9149 45.4717L51.0857 40.0437ZM51.8887 19.2C51.8891 19.709 52.1259 20.1786 52.5089 20.4293C52.8918 20.6801 53.3617 20.6734 53.7392 20.4117L57.406 17.8667C57.7742 17.6115 57.9997 17.1515 58 16.655V11.4688C57.9992 10.96 57.7622 10.4909 57.3793 10.2405C56.9964 9.99011 56.5268 9.99698 56.1495 10.2585L52.4827 12.8035C52.1145 13.0587 51.8891 13.5187 51.8887 14.0152V19.2014V19.2Z" fill="#007FFF"/>
</g>
<defs>
<filter id="filter0_d_122_145" x="0" y="0" width="72" height="72" filterUnits="userSpaceOnUse" color-interpolation-filters="sRGB">
<feFlood flood-opacity="0" result="BackgroundImageFix"/>
<feColorMatrix in="SourceAlpha" type="matrix" values="0 0 0 0 0 0 0 0 0 0 0 0 0 0 0 0 0 0 127 0" result="hardAlpha"/>
<feOffset dy="4"/>
<feGaussianBlur stdDeviation="7"/>
<feComposite in2="hardAlpha" operator="out"/>
<feColorMatrix type="matrix" values="0 0 0 0 0.602857 0 0 0 0 0.714019 0 0 0 0 0.995192 0 0 0 0.71 0"/>
<feBlend mode="normal" in2="BackgroundImageFix" result="effect1_dropShadow_122_145"/>
<feBlend mode="normal" in="SourceGraphic" in2="effect1_dropShadow_122_145" result="shape"/>
</filter>
</defs>
</svg>
