<svg width="48" height="48" viewBox="0 0 48 48" fill="none" xmlns="http://www.w3.org/2000/svg">
<g filter="url(#filter0_d_122_80)">
<path d="M43.8364 22.5395C45.2362 11.5815 37.4976 1.56332 26.5595 0.163575C15.6215 -1.23617 5.56332 6.50243 4.16358 17.4405C2.76383 28.3785 10.5024 38.4167 21.4405 39.8364C32.3985 41.2362 42.4167 33.4976 43.8364 22.5395Z" fill="#FF6C37"/>
<path d="M31.2187 12.8414L22.7802 21.2799L20.4006 18.9004C28.6991 10.6019 29.519 11.3217 31.2187 12.8414Z" fill="white"/>
<path d="M22.7802 21.4799C22.7202 21.4799 22.6802 21.4599 22.6402 21.4199L20.2407 19.0403C20.1607 18.9603 20.1607 18.8404 20.2407 18.7604C28.6791 10.3219 29.559 11.1218 31.3387 12.7215C31.3786 12.7615 31.3986 12.8015 31.3986 12.8614C31.3986 12.9214 31.3786 12.9614 31.3387 13.0014L22.9002 21.4199C22.8802 21.4599 22.8202 21.4799 22.7802 21.4799ZM20.6806 18.9004L22.7802 21L30.9187 12.8614C29.439 11.5417 28.4392 11.1418 20.6806 18.9004Z" fill="#FF6C37"/>
<path d="M25.1997 23.6995L22.9001 21.3999L31.3386 12.9614C33.5982 15.241 30.2188 18.9403 25.1997 23.6995Z" fill="white"/>
<path d="M25.1998 23.8995C25.1398 23.8995 25.0998 23.8795 25.0598 23.8395L22.7602 21.5399C22.7202 21.4999 22.7202 21.4599 22.7202 21.3999C22.7202 21.3399 22.7402 21.2999 22.7802 21.2599L31.2187 12.8215C31.2987 12.7415 31.4186 12.7415 31.4986 12.8215C32.0185 13.3014 32.2985 13.9813 32.2785 14.6811C32.2385 16.9007 29.719 19.7202 25.3597 23.8395C25.2998 23.8795 25.2398 23.8995 25.1998 23.8995ZM23.1801 21.3999C24.4599 22.6997 24.9998 23.2196 25.1998 23.4196C28.5592 20.2201 31.8186 16.9407 31.8386 14.6811C31.8586 14.1612 31.6586 13.6413 31.3187 13.2414L23.1801 21.3999Z" fill="#FF6C37"/>
<path d="M20.4406 18.9603L22.1403 20.66C22.1803 20.7 22.1803 20.74 22.1403 20.7799C22.1203 20.7999 22.1203 20.7999 22.1003 20.7999L18.5809 21.5598C18.401 21.5798 18.241 21.4598 18.201 21.2799C18.181 21.1799 18.221 21.0799 18.281 21.0199L20.3206 18.9803C20.3606 18.9403 20.4206 18.9203 20.4406 18.9603Z" fill="white"/>
<path d="M18.521 21.7598C18.2211 21.7598 18.0011 21.5198 18.0011 21.2199C18.0011 21.0799 18.0611 20.9399 18.1611 20.84L20.2007 18.8003C20.3207 18.7003 20.4807 18.7003 20.6006 18.8003L22.3003 20.5C22.4203 20.6 22.4203 20.78 22.3003 20.8999C22.2603 20.9399 22.2203 20.9599 22.1603 20.9799L18.641 21.7398C18.601 21.7398 18.561 21.7598 18.521 21.7598ZM20.3807 19.1803L18.421 21.1399C18.381 21.1799 18.361 21.2399 18.401 21.2999C18.421 21.3599 18.481 21.3799 18.541 21.3599L21.8404 20.64L20.3807 19.1803Z" fill="#FF6C37"/>
<path d="M35.6779 8.16222C34.3981 6.92244 32.3385 6.96243 31.0987 8.2622C29.859 9.56196 29.899 11.6016 31.1987 12.8414C32.2585 13.8612 33.8582 14.0412 35.118 13.2813L32.8384 11.0017L35.6779 8.16222Z" fill="white"/>
<path d="M33.4383 13.9411C31.5386 13.9411 29.9989 12.4014 29.9989 10.5018C29.9989 8.6021 31.5386 7.06238 33.4383 7.06238C34.3181 7.06238 35.178 7.40232 35.8179 8.0222C35.8578 8.0622 35.8778 8.10219 35.8778 8.16218C35.8778 8.22217 35.8578 8.26216 35.8179 8.30215L33.1183 11.0017L35.238 13.1213C35.3179 13.2013 35.3179 13.3212 35.238 13.4012C35.218 13.4212 35.218 13.4212 35.198 13.4412C34.6781 13.7612 34.0582 13.9411 33.4383 13.9411ZM33.4383 7.4823C31.7586 7.4823 30.3988 8.84206 30.4188 10.5218C30.4188 12.2015 31.7786 13.5612 33.4583 13.5412C33.9182 13.5412 34.3781 13.4412 34.798 13.2213L32.6984 11.1416C32.6584 11.1016 32.6384 11.0617 32.6384 11.0017C32.6384 10.9417 32.6584 10.9017 32.6984 10.8617L35.3779 8.18218C34.838 7.72226 34.1582 7.4823 33.4383 7.4823Z" fill="#FF6C37"/>
<path d="M35.7379 8.22224L35.6979 8.18225L32.8384 11.0017L35.098 13.2613C35.3179 13.1214 35.5379 12.9614 35.7179 12.7814C36.9976 11.5216 36.9976 9.48202 35.7379 8.22224Z" fill="white"/>
<path d="M35.118 13.4813C35.058 13.4813 35.018 13.4613 34.978 13.4213L32.6984 11.1417C32.6584 11.1017 32.6384 11.0617 32.6384 11.0017C32.6384 10.9417 32.6584 10.9018 32.6984 10.8618L35.5379 8.02227C35.6179 7.94228 35.7379 7.94228 35.8179 8.02227L35.8778 8.06226C37.2176 9.40202 37.2176 11.5616 35.8978 12.9214C35.6979 13.1214 35.4779 13.3013 35.238 13.4413C35.178 13.4613 35.138 13.4813 35.118 13.4813ZM33.1183 11.0017L35.138 13.0214C35.2979 12.9214 35.4579 12.7814 35.5779 12.6614C36.7177 11.5216 36.7777 9.66197 35.6779 8.46219L33.1183 11.0017Z" fill="#FF6C37"/>
<path d="M31.5586 13.2014C31.0787 12.7215 30.2988 12.7215 29.8189 13.2014L22.2803 20.74L23.54 21.9998L31.5186 15.001C32.0385 14.5611 32.0785 13.7813 31.6386 13.2614C31.5986 13.2414 31.5786 13.2214 31.5586 13.2014Z" fill="white"/>
<path d="M23.52 22.1998C23.4601 22.1998 23.4201 22.1798 23.3801 22.1398L22.1203 20.88C22.0403 20.8 22.0403 20.68 22.1203 20.6L29.6589 13.0614C30.2188 12.5015 31.1187 12.5015 31.6786 13.0614C32.2385 13.6213 32.2385 14.5211 31.6786 15.081C31.6586 15.101 31.6386 15.121 31.6186 15.141L23.64 22.1398C23.62 22.1798 23.58 22.1998 23.52 22.1998ZM22.5602 20.74L23.54 21.7198L31.3786 14.8411C31.8185 14.4811 31.8585 13.8213 31.4986 13.3813C31.1387 12.9414 30.4788 12.9014 30.0389 13.2614C30.0189 13.2814 29.9989 13.3014 29.9589 13.3214L22.5602 20.74Z" fill="#FF6C37"/>
<path d="M16.5013 29.3184C16.4213 29.3584 16.3813 29.4384 16.4013 29.5184L16.7413 30.9581C16.8213 31.1581 16.7013 31.398 16.4813 31.458C16.3214 31.518 16.1414 31.458 16.0414 31.338L13.8418 29.1584L21.0205 21.9797L23.5001 22.0197L25.1798 23.6994C24.7798 24.0394 22.3603 26.3789 16.5013 29.3184Z" fill="white"/>
<path d="M16.3414 31.658C16.1814 31.658 16.0215 31.598 15.9215 31.478L13.7419 29.2984C13.7019 29.2584 13.6819 29.2184 13.6819 29.1585C13.6819 29.0985 13.7019 29.0585 13.7419 29.0185L20.9206 21.8398C20.9606 21.7998 21.0206 21.7798 21.0606 21.7798L23.5401 21.8198C23.6001 21.8198 23.6401 21.8398 23.6801 21.8798L25.3598 23.5595C25.3998 23.5995 25.4198 23.6594 25.4198 23.7194C25.4198 23.7794 25.3998 23.8194 25.3398 23.8594L25.1998 23.9794C23.0802 25.8391 20.2007 27.6987 16.6214 29.4784L16.9613 30.8981C17.0213 31.1581 16.9013 31.438 16.6613 31.578C16.5414 31.638 16.4414 31.658 16.3414 31.658ZM14.1418 29.1585L16.2014 31.1981C16.2614 31.2981 16.3814 31.3381 16.4814 31.2781C16.5814 31.2181 16.6214 31.0981 16.5614 30.9981L16.2214 29.5584C16.1814 29.3784 16.2614 29.2184 16.4214 29.1385C19.9608 27.3588 22.8202 25.5191 24.9199 23.6994L23.4401 22.2197L21.1405 22.1797L14.1418 29.1585Z" fill="#FF6C37"/>
<path d="M12.1421 30.8781L13.8618 29.1584L16.4213 31.718L12.3421 31.438C12.1621 31.418 12.0421 31.2581 12.0621 31.0781C12.0621 30.9981 12.0821 30.9181 12.1421 30.8781Z" fill="white"/>
<path d="M16.4214 31.8979L12.3221 31.618C12.0222 31.598 11.8222 31.338 11.8422 31.0381C11.8622 30.9181 11.9022 30.7981 12.0022 30.7182L13.7219 28.9985C13.8018 28.9185 13.9218 28.9185 14.0018 28.9985L16.5613 31.558C16.6213 31.618 16.6413 31.698 16.6013 31.778C16.5613 31.8579 16.5014 31.8979 16.4214 31.8979ZM13.8618 29.4384L12.2821 31.0181C12.2221 31.0581 12.2221 31.1581 12.2821 31.1981C12.3021 31.2181 12.3221 31.2381 12.3621 31.2381L15.9015 31.478L13.8618 29.4384Z" fill="#FF6C37"/>
<path d="M20.3207 22.8996C20.2007 22.8996 20.1207 22.7997 20.1207 22.6997C20.1207 22.6397 20.1407 22.5997 20.1807 22.5597L22.1204 20.62C22.2004 20.5401 22.3203 20.5401 22.4003 20.62L23.6601 21.8798C23.7201 21.9398 23.7401 21.9998 23.7201 22.0798C23.7001 22.1398 23.6401 22.1998 23.5601 22.2198L20.3607 22.8996C20.3407 22.8996 20.3207 22.8996 20.3207 22.8996ZM22.2603 21.04L20.9406 22.3597L23.1002 21.8998L22.2603 21.04Z" fill="#FF6C37"/>
<path d="M23.5001 22.0198L21.3005 22.4997C21.1405 22.5397 20.9806 22.4397 20.9406 22.2798C20.9206 22.1798 20.9406 22.0798 21.0205 21.9998L22.2403 20.78L23.5001 22.0198Z" fill="white"/>
<path d="M21.2605 22.6997C20.9806 22.6997 20.7606 22.4797 20.7606 22.1998C20.7606 22.0598 20.8206 21.9398 20.9006 21.8398L22.1204 20.62C22.2004 20.5401 22.3203 20.5401 22.4003 20.62L23.6601 21.8798C23.7201 21.9398 23.7401 21.9998 23.7201 22.0798C23.7001 22.1398 23.6401 22.1998 23.5601 22.2198L21.3605 22.6997C21.3205 22.6997 21.2805 22.6997 21.2605 22.6997ZM22.2603 21.04L21.1805 22.1198C21.1406 22.1598 21.1406 22.1998 21.1605 22.2398C21.1805 22.2797 21.2205 22.2997 21.2805 22.2997L23.1202 21.8998L22.2603 21.04Z" fill="#FF6C37"/>
<path d="M35.7579 10.1419C35.7179 10.022 35.5779 9.96197 35.4579 10.002C35.3379 10.042 35.2779 10.1819 35.3179 10.3019C35.3179 10.3219 35.3379 10.3419 35.3379 10.3619C35.4579 10.6019 35.4179 10.9018 35.2579 11.1218C35.178 11.2217 35.198 11.3617 35.2779 11.4417C35.3779 11.5217 35.5179 11.5017 35.5979 11.4017C35.8978 11.0218 35.9578 10.5419 35.7579 10.1419Z" fill="#FF6C37"/>
</g>
<defs>
<filter id="filter0_d_122_80" x="0" y="0" width="48" height="48" filterUnits="userSpaceOnUse" color-interpolation-filters="sRGB">
<feFlood flood-opacity="0" result="BackgroundImageFix"/>
<feColorMatrix in="SourceAlpha" type="matrix" values="0 0 0 0 0 0 0 0 0 0 0 0 0 0 0 0 0 0 127 0" result="hardAlpha"/>
<feOffset dy="4"/>
<feGaussianBlur stdDeviation="2"/>
<feComposite in2="hardAlpha" operator="out"/>
<feColorMatrix type="matrix" values="0 0 0 0 1 0 0 0 0 0.605689 0 0 0 0 0.360577 0 0 0 0.78 0"/>
<feBlend mode="normal" in2="BackgroundImageFix" result="effect1_dropShadow_122_80"/>
<feBlend mode="normal" in="SourceGraphic" in2="effect1_dropShadow_122_80" result="shape"/>
</filter>
</defs>
</svg>
