<svg width="68" height="68" viewBox="0 0 68 68" fill="none" xmlns="http://www.w3.org/2000/svg">
<g filter="url(#filter0_d_122_209)">
<path d="M14 10H54V50H14V10Z" fill="#F7DF1E"/>
</g>
<path d="M24.5175 43.4269L27.5785 41.5744C28.1691 42.6215 28.7063 43.5074 29.9949 43.5074C31.23 43.5074 32.0088 43.0242 32.0088 41.1448V28.3639H35.7677V41.198C35.7677 45.0913 33.4856 46.8634 30.156 46.8634C27.149 46.8634 25.4034 45.3061 24.5174 43.4266" fill="black"/>
<path d="M37.8095 43.0241L40.8702 41.252C41.6759 42.5678 42.7231 43.5343 44.5757 43.5343C46.1332 43.5343 47.1264 42.7556 47.1264 41.6816C47.1264 40.3927 46.1061 39.9362 44.3877 39.1847L43.4482 38.7816C40.7361 37.6273 38.9371 36.1774 38.9371 33.1164C38.9371 30.2971 41.0851 28.1489 44.4415 28.1489C46.8312 28.1489 48.5496 28.9814 49.7846 31.1563L46.8579 33.0357C46.2134 31.8812 45.5155 31.4249 44.4416 31.4249C43.3407 31.4249 42.6425 32.123 42.6425 33.0357C42.6425 34.1635 43.3407 34.62 44.9515 35.3182L45.8912 35.7209C49.0865 37.0904 50.8855 38.4864 50.8855 41.6278C50.8855 45.0112 48.2274 46.8637 44.6563 46.8637C41.1658 46.8637 38.9102 45.1991 37.8095 43.0241Z" fill="black"/>
<defs>
<filter id="filter0_d_122_209" x="0" y="0" width="68" height="68" filterUnits="userSpaceOnUse" color-interpolation-filters="sRGB">
<feFlood flood-opacity="0" result="BackgroundImageFix"/>
<feColorMatrix in="SourceAlpha" type="matrix" values="0 0 0 0 0 0 0 0 0 0 0 0 0 0 0 0 0 0 127 0" result="hardAlpha"/>
<feOffset dy="4"/>
<feGaussianBlur stdDeviation="7"/>
<feComposite in2="hardAlpha" operator="out"/>
<feColorMatrix type="matrix" values="0 0 0 0 0.831731 0 0 0 0 0.672849 0 0 0 0 0.235924 0 0 0 0.72 0"/>
<feBlend mode="normal" in2="BackgroundImageFix" result="effect1_dropShadow_122_209"/>
<feBlend mode="normal" in="SourceGraphic" in2="effect1_dropShadow_122_209" result="shape"/>
</filter>
</defs>
</svg>
