<svg width="57" height="48" viewBox="0 0 57 48" fill="none" xmlns="http://www.w3.org/2000/svg">
<g filter="url(#filter0_d_122_107)">
<path d="M43.2919 6.03077C45.9899 8.89231 47.1231 12.8 47.6008 18.2769C48.869 18.2769 50.0517 18.5595 50.8501 19.6523L52.3416 21.6831C52.7703 22.2677 53 22.9662 53 23.6923V29.2092C52.9985 29.9216 52.6472 30.6161 52.0751 31.0369C45.3218 36.0043 36.9888 40 28.5 40C19.1085 40 9.70579 34.5628 4.92487 31.0369C4.35282 30.6161 4.00138 29.9216 4 29.2092V23.6923C4 22.9662 4.22969 22.2646 4.65538 21.68L6.14681 19.6523C6.94558 18.5644 8.13348 18.2769 9.39919 18.2769C9.87694 12.8 11.007 8.89231 13.7081 6.03077C18.8017 0.608616 25.5461 0.0115692 28.4143 0.000170523L28.5 0C31.3175 0 38.1469 0.553846 43.2919 6.03077ZM28.5031 15.1415C27.9212 15.1415 27.2505 15.1754 26.5369 15.2462C26.2858 16.1877 25.9153 17.0369 25.3732 17.5785C23.2294 19.7323 20.6447 20.0646 19.2604 20.0646C17.9585 20.0646 16.5946 19.7915 15.4813 19.0862C14.4281 19.4338 13.4168 19.9352 13.3498 21.1846C13.2377 23.5463 13.2279 25.9056 13.2182 28.2662C13.2131 29.4509 13.2084 30.6358 13.1906 31.8215C13.1952 32.5097 13.6082 33.1491 14.2318 33.4338C19.3003 35.7538 24.0931 36.9231 28.5031 36.9231C32.9069 36.9231 37.6997 35.7538 42.7651 33.4338C43.3888 33.1491 43.8016 32.5097 43.8064 31.8215C43.8671 28.2795 43.8182 24.7231 43.6502 21.1846H43.6533C43.5878 19.9281 42.5722 19.435 41.5156 19.0862C40.4015 19.7884 39.0412 20.0646 37.7396 20.0646C36.3553 20.0646 33.7736 19.7323 31.6268 17.5785C31.0847 17.0369 30.7142 16.1877 30.4631 15.2462C29.8118 15.1796 29.1577 15.1447 28.5031 15.1415ZM23.3464 23.5897C24.4466 23.5897 25.3386 24.4859 25.3386 25.5913V29.2805C25.3386 30.3859 24.4466 31.2821 23.3464 31.2821C22.2461 31.2821 21.3542 30.3859 21.3542 29.2805V25.5913C21.3542 24.4859 22.2461 23.5897 23.3464 23.5897ZM33.5547 23.5897C34.655 23.5897 35.5469 24.4859 35.5469 25.5913V29.2805C35.5469 30.3859 34.655 31.2821 33.5547 31.2821C32.4545 31.2821 31.5625 30.3859 31.5625 29.2805V25.5913C31.5625 24.4859 32.4545 23.5897 33.5547 23.5897ZM19.5881 5.44615C17.4444 5.66154 15.6375 6.36923 14.7188 7.35385C12.7281 9.53846 13.1569 15.0769 14.29 16.2462C15.1169 17.0769 16.6788 17.6308 18.3631 17.6308C19.6494 17.6308 22.0994 17.3538 24.1206 15.2923C25.0088 14.4308 25.56 12.2769 25.4988 10.0923C25.4375 8.33846 24.9475 6.89231 24.2125 6.27692C23.4163 5.56923 21.6094 5.26154 19.5881 5.44615ZM32.7875 6.27692C32.0525 6.89231 31.5625 8.33846 31.5012 10.0923C31.44 12.2769 31.9913 14.4308 32.8794 15.2923C34.9006 17.3538 37.3506 17.6308 38.6369 17.6308C40.3213 17.6308 41.8831 17.0769 42.71 16.2462C43.8431 15.0769 44.2719 9.53846 42.2812 7.35385C41.3625 6.36923 39.5556 5.66154 37.4119 5.44615C35.3906 5.26154 33.5837 5.56923 32.7875 6.27692ZM28.5 10.7692C28.01 10.7692 27.4281 10.8 26.785 10.8615C26.8463 11.2 26.8769 11.5692 26.9075 11.9692C26.9075 12.2462 26.9075 12.5231 26.8769 12.8308C27.4894 12.7692 28.01 12.7692 28.5 12.7692C28.9899 12.7692 29.5106 12.7692 30.1231 12.8308C30.0925 12.5231 30.0925 12.2462 30.0925 11.9693C30.1231 11.5693 30.1538 11.2 30.215 10.8615C29.5719 10.8 28.99 10.7692 28.5 10.7692Z" fill="black"/>
</g>
<defs>
<filter id="filter0_d_122_107" x="0" y="0" width="57" height="48" filterUnits="userSpaceOnUse" color-interpolation-filters="sRGB">
<feFlood flood-opacity="0" result="BackgroundImageFix"/>
<feColorMatrix in="SourceAlpha" type="matrix" values="0 0 0 0 0 0 0 0 0 0 0 0 0 0 0 0 0 0 127 0" result="hardAlpha"/>
<feOffset dy="4"/>
<feGaussianBlur stdDeviation="2"/>
<feComposite in2="hardAlpha" operator="out"/>
<feColorMatrix type="matrix" values="0 0 0 0 0.408654 0 0 0 0 0.39883 0 0 0 0 0.39883 0 0 0 0.67 0"/>
<feBlend mode="normal" in2="BackgroundImageFix" result="effect1_dropShadow_122_107"/>
<feBlend mode="normal" in="SourceGraphic" in2="effect1_dropShadow_122_107" result="shape"/>
</filter>
</defs>
</svg>
