<svg width="68" height="68" viewBox="0 0 68 68" fill="none" xmlns="http://www.w3.org/2000/svg">
<g filter="url(#filter0_d_122_202)">
<path d="M54 16.6689L52.5556 38.096L38.7458 10L54 16.6689ZM44.4348 44.3752L34.0001 50L23.5652 44.3752L25.6875 39.5161H42.3125L44.4348 44.3752ZM34.0001 20.6648L39.4679 33.2231H28.5321L34.0001 20.6648ZM15.4296 38.096L14 16.6689L29.2542 10L15.4296 38.096Z" fill="url(#paint0_linear_122_202)"/>
<path d="M54 16.6689L52.5556 38.096L38.7458 10L54 16.6689ZM44.4348 44.3752L34.0001 50L23.5652 44.3752L25.6875 39.5161H42.3125L44.4348 44.3752ZM34.0001 20.6648L39.4679 33.2231H28.5321L34.0001 20.6648ZM15.4296 38.096L14 16.6689L29.2542 10L15.4296 38.096Z" fill="url(#paint1_linear_122_202)"/>
</g>
<defs>
<filter id="filter0_d_122_202" x="0" y="0" width="68" height="68" filterUnits="userSpaceOnUse" color-interpolation-filters="sRGB">
<feFlood flood-opacity="0" result="BackgroundImageFix"/>
<feColorMatrix in="SourceAlpha" type="matrix" values="0 0 0 0 0 0 0 0 0 0 0 0 0 0 0 0 0 0 127 0" result="hardAlpha"/>
<feOffset dy="4"/>
<feGaussianBlur stdDeviation="7"/>
<feComposite in2="hardAlpha" operator="out"/>
<feColorMatrix type="matrix" values="0 0 0 0 0.725962 0 0 0 0 0.160549 0 0 0 0 0.584608 0 0 0 0.5 0"/>
<feBlend mode="normal" in2="BackgroundImageFix" result="effect1_dropShadow_122_202"/>
<feBlend mode="normal" in="SourceGraphic" in2="effect1_dropShadow_122_202" result="shape"/>
</filter>
<linearGradient id="paint0_linear_122_202" x1="1016.86" y1="3647.17" x2="3859.29" y2="2217.35" gradientUnits="userSpaceOnUse">
<stop stop-color="#E40035"/>
<stop offset="0.24" stop-color="#F60A48"/>
<stop offset="0.352" stop-color="#F20755"/>
<stop offset="0.494" stop-color="#DC087D"/>
<stop offset="0.745" stop-color="#9717E7"/>
<stop offset="1" stop-color="#6C00F5"/>
</linearGradient>
<linearGradient id="paint1_linear_122_202" x1="888.515" y1="492.301" x2="2748.68" y2="2738.41" gradientUnits="userSpaceOnUse">
<stop stop-color="#FF31D9"/>
<stop offset="1" stop-color="#FF5BE1" stop-opacity="0"/>
</linearGradient>
</defs>
</svg>
