<svg width="78" height="78" viewBox="0 0 78 78" fill="none" xmlns="http://www.w3.org/2000/svg">
<g filter="url(#filter0_d_122_140)">
<g filter="url(#filter1_d_122_140)">
<path d="M59 34.9996C59 46.0463 50.0459 55 38.9995 55C27.9538 55 19 46.0463 19 34.9996C19 23.9539 27.9538 15 38.9995 15C50.0459 15 59 23.9539 59 34.9996Z" fill="#F22E46"/>
</g>
<path d="M37.285 30.764L42.0805 35.558C42.7727 36.251 43.8965 36.251 44.5904 35.558C45.2828 34.8648 45.2843 33.742 44.5904 33.0488L39.7947 28.2531C36.3632 24.8209 30.8172 24.7657 27.3131 28.0787C27.2807 28.106 27.2483 28.1346 27.2185 28.1644C27.2033 28.1798 27.1908 28.196 27.1756 28.2097C27.1598 28.2247 27.1441 28.2382 27.1291 28.2532C27.0989 28.2834 27.0712 28.315 27.0447 28.3465C23.73 31.8523 23.787 37.3984 27.2187 40.8304L32.0144 45.6248C32.7081 46.3176 33.8304 46.3176 34.5239 45.6248C35.2181 44.9317 35.2181 43.8073 34.5258 43.1157L29.73 38.32C27.6365 36.2274 27.6224 32.8311 29.6865 30.7206C31.7968 28.6564 35.1913 28.6714 37.285 30.764Z" fill="white"/>
<path d="M43.4745 24.3777C42.7815 25.071 42.7815 26.1937 43.4763 26.8869L48.2702 31.6826C50.3625 33.7752 50.3761 37.171 48.3121 39.2821C46.2011 41.3444 42.8078 41.3309 40.7148 39.238L35.9192 34.4429C35.2256 33.7496 34.1015 33.7496 33.4088 34.4429C32.7146 35.1355 32.7146 36.2618 33.4088 36.953L38.2029 41.7489C41.6354 45.1809 47.1807 45.2368 50.6855 41.9232C50.718 41.8946 50.7487 41.8679 50.781 41.8376C50.7955 41.8227 50.8092 41.8075 50.8235 41.7923C50.839 41.7774 50.8542 41.7636 50.8688 41.7471C50.8995 41.7185 50.9259 41.687 50.9532 41.6542C54.2681 38.1498 54.2127 32.6056 50.781 29.1716L45.9853 24.3776C45.2923 23.6834 44.1669 23.6834 43.4745 24.3777Z" fill="#F5B1B2"/>
</g>
<defs>
<filter id="filter0_d_122_140" x="5" y="5" width="68" height="68" filterUnits="userSpaceOnUse" color-interpolation-filters="sRGB">
<feFlood flood-opacity="0" result="BackgroundImageFix"/>
<feColorMatrix in="SourceAlpha" type="matrix" values="0 0 0 0 0 0 0 0 0 0 0 0 0 0 0 0 0 0 127 0" result="hardAlpha"/>
<feOffset dy="4"/>
<feGaussianBlur stdDeviation="7"/>
<feComposite in2="hardAlpha" operator="out"/>
<feColorMatrix type="matrix" values="0 0 0 0 0.879808 0 0 0 0 0.473743 0 0 0 0 0.523465 0 0 0 1 0"/>
<feBlend mode="normal" in2="BackgroundImageFix" result="effect1_dropShadow_122_140"/>
<feBlend mode="normal" in="SourceGraphic" in2="effect1_dropShadow_122_140" result="shape"/>
</filter>
<filter id="filter1_d_122_140" x="0" y="0" width="78" height="78" filterUnits="userSpaceOnUse" color-interpolation-filters="sRGB">
<feFlood flood-opacity="0" result="BackgroundImageFix"/>
<feColorMatrix in="SourceAlpha" type="matrix" values="0 0 0 0 0 0 0 0 0 0 0 0 0 0 0 0 0 0 127 0" result="hardAlpha"/>
<feOffset dy="4"/>
<feGaussianBlur stdDeviation="9.5"/>
<feComposite in2="hardAlpha" operator="out"/>
<feColorMatrix type="matrix" values="0 0 0 0 0.918269 0 0 0 0 0.472379 0 0 0 0 0.472379 0 0 0 0.25 0"/>
<feBlend mode="normal" in2="BackgroundImageFix" result="effect1_dropShadow_122_140"/>
<feBlend mode="normal" in="SourceGraphic" in2="effect1_dropShadow_122_140" result="shape"/>
</filter>
</defs>
</svg>
