<svg width="34" height="36" viewBox="0 0 34 36" fill="none" xmlns="http://www.w3.org/2000/svg">
<path d="M19.7491 35.4019C18.8624 36.5601 17.0643 35.9255 17.043 34.4467L16.7305 12.8171H30.7539C33.2939 12.8171 34.7105 15.8597 33.1311 17.9228L19.7491 35.4019Z" fill="url(#paint0_linear_122_110)"/>
<path d="M19.7491 35.4019C18.8624 36.5601 17.0643 35.9255 17.043 34.4467L16.7305 12.8171H30.7539C33.2939 12.8171 34.7105 15.8597 33.1311 17.9228L19.7491 35.4019Z" fill="url(#paint1_linear_122_110)" fill-opacity="0.2"/>
<path d="M14.0459 0.598169C14.9327 -0.560122 16.7308 0.074538 16.7521 1.55338L16.889 23.1829H3.04115C0.501062 23.1829 -0.915592 20.1403 0.663911 18.0772L14.0459 0.598169Z" fill="#3ECF8E"/>
<defs>
<linearGradient id="paint0_linear_122_110" x1="372.725" y1="492.398" x2="1185.38" y2="821.033" gradientUnits="userSpaceOnUse">
<stop stop-color="#249361"/>
<stop offset="1" stop-color="#3ECF8E"/>
</linearGradient>
<linearGradient id="paint1_linear_122_110" x1="50.7087" y1="-292.232" x2="596.843" y2="699.059" gradientUnits="userSpaceOnUse">
<stop/>
<stop offset="1" stop-opacity="0"/>
</linearGradient>
</defs>
</svg>
