<svg width="48" height="48" viewBox="0 0 48 48" fill="none" xmlns="http://www.w3.org/2000/svg">
<g filter="url(#filter0_d_122_148)">
<path d="M20.2334 1.42859C23.07 1.42859 25.0096 2.14287 26.949 2.85716L27.09 2.90927L27.279 2.97885L27.4678 3.04817C27.4993 3.05969 27.5308 3.07119 27.5623 3.08268L27.7514 3.15133C29.4236 3.75521 31.1485 4.28573 33.593 4.28573C35.9726 4.28573 37.6828 3.78328 39.2849 3.19979L39.4693 3.13212C39.5306 3.10947 39.5918 3.08671 39.6529 3.06389L39.836 2.99522C39.8665 2.98374 39.8969 2.97226 39.9274 2.96077L40.1099 2.89172C40.1403 2.8802 40.1707 2.86868 40.2012 2.85716L40.4749 2.75355C41.572 2.33937 42.6848 1.93686 44 1.68627L44 30.2577C42.7943 30.4875 41.7589 30.8448 40.7494 31.2219L40.5664 31.2905C40.4445 31.3364 40.3228 31.3825 40.2012 31.4286L39.9273 31.5322C39.8969 31.5437 39.8664 31.5552 39.8359 31.5666L39.6529 31.6353C37.9417 32.2744 36.1556 32.8572 33.593 32.8572C31.1862 32.8572 29.4638 32.343 27.8071 31.7506L27.6162 31.6819C27.5527 31.6589 27.4892 31.6358 27.4257 31.6127L27.2353 31.543L27.0449 31.4732L26.9041 31.422L26.7099 31.3508C26.6775 31.339 26.6451 31.3271 26.6127 31.3153L26.4181 31.2444C26.3857 31.2326 26.3532 31.2209 26.3207 31.2091L26.1254 31.1389C24.4302 30.5331 22.6534 30 20.2334 30C18.2247 30 16.6931 30.358 15.3009 30.8205L15.3009 25.1061C16.6931 24.6437 18.2248 24.2857 20.2334 24.2857C22.8375 24.2857 24.6856 24.8877 26.4716 25.5391L26.6627 25.609L26.949 25.7143L27.09 25.7663C27.2161 25.8127 27.3419 25.8591 27.4678 25.9052L27.6568 25.9741L27.8393 26.04C27.8698 26.051 27.9003 26.0619 27.9308 26.0728L28.1142 26.1377C29.6761 26.686 31.3248 27.1429 33.593 27.1429C35.5784 27.1429 37.0979 26.7931 38.4773 26.3383L38.4773 9.1954C37.0978 9.65021 35.5785 10 33.593 10C31.1829 10 29.4592 9.4844 27.8004 8.89103L27.6129 8.82355L27.4257 8.75554L27.2353 8.68593L27.0449 8.61607L26.9041 8.56482C26.7423 8.50547 26.5804 8.44614 26.4181 8.38723L26.2232 8.31677L26.0275 8.24688C24.3616 7.65566 22.6069 7.14288 20.2334 7.14288C17.8503 7.14288 16.1389 7.64668 14.5348 8.23118L14.3537 8.29768L14.1732 8.36472L13.9901 8.43339C13.9292 8.45634 13.8683 8.47933 13.8074 8.50235L13.6249 8.57145C13.5033 8.61753 13.3816 8.66361 13.2597 8.7095L13.0766 8.77817C11.3655 9.41729 9.57942 10 7.0168 10C6.96861 10 6.92069 9.99981 6.87305 9.9994L6.87308 4.28512C6.92071 4.28553 6.96861 4.28573 7.0168 4.28573C9.57942 4.28573 11.3657 3.70301 13.0767 3.06389L13.2598 2.99522L13.3511 2.96077L13.5337 2.89172C13.5641 2.8802 13.5945 2.86868 13.6249 2.85716L13.8987 2.75355C15.695 2.07542 17.5332 1.42859 20.2334 1.42859Z" fill="#528DD7"/>
<path d="M6.8731 0C5.28635 0 4 1.2792 4 2.85714V37.1429C4 38.7209 5.28635 40 6.8731 40C8.45986 40 9.74621 38.7209 9.74621 37.1429V2.85714C9.74621 1.2792 8.45986 0 6.8731 0Z" fill="#193154"/>
</g>
<defs>
<filter id="filter0_d_122_148" x="0" y="0" width="48" height="48" filterUnits="userSpaceOnUse" color-interpolation-filters="sRGB">
<feFlood flood-opacity="0" result="BackgroundImageFix"/>
<feColorMatrix in="SourceAlpha" type="matrix" values="0 0 0 0 0 0 0 0 0 0 0 0 0 0 0 0 0 0 127 0" result="hardAlpha"/>
<feOffset dy="4"/>
<feGaussianBlur stdDeviation="2"/>
<feComposite in2="hardAlpha" operator="out"/>
<feColorMatrix type="matrix" values="0 0 0 0 0.573768 0 0 0 0 0.565204 0 0 0 0 0.822115 0 0 0 0.96 0"/>
<feBlend mode="normal" in2="BackgroundImageFix" result="effect1_dropShadow_122_148"/>
<feBlend mode="normal" in="SourceGraphic" in2="effect1_dropShadow_122_148" result="shape"/>
</filter>
</defs>
</svg>
