<svg width="48" height="48" viewBox="0 0 48 48" fill="none" xmlns="http://www.w3.org/2000/svg">
<g clip-path="url(#clip0_122_152)" filter="url(#filter0_d_122_152)">
<g filter="url(#filter1_d_122_152)">
<mask id="mask0_122_152" style="mask-type:luminance" maskUnits="userSpaceOnUse" x="4" y="0" width="40" height="40">
<path d="M24 40C35.0457 40 44 31.0457 44 20C44 8.9543 35.0457 0 24 0C12.9543 0 4 8.9543 4 20C4 31.0457 12.9543 40 24 40Z" fill="white"/>
</mask>
<g mask="url(#mask0_122_152)">
<path d="M24 40C35.0457 40 44 31.0457 44 20C44 8.9543 35.0457 0 24 0C12.9543 0 4 8.9543 4 20C4 31.0457 12.9543 40 24 40Z" fill="black"/>
<path d="M37.224 35.0044L19.3649 12H16V27.9933H18.6919V15.4186L35.1109 36.6322C35.8518 36.1364 36.5576 35.5922 37.224 35.0044Z" fill="url(#paint0_linear_122_152)"/>
<path d="M32.2222 12H29.5555V28H32.2222V12Z" fill="url(#paint1_linear_122_152)"/>
</g>
</g>
</g>
<defs>
<filter id="filter0_d_122_152" x="0" y="0" width="48" height="48" filterUnits="userSpaceOnUse" color-interpolation-filters="sRGB">
<feFlood flood-opacity="0" result="BackgroundImageFix"/>
<feColorMatrix in="SourceAlpha" type="matrix" values="0 0 0 0 0 0 0 0 0 0 0 0 0 0 0 0 0 0 127 0" result="hardAlpha"/>
<feOffset dy="4"/>
<feGaussianBlur stdDeviation="2"/>
<feComposite in2="hardAlpha" operator="out"/>
<feColorMatrix type="matrix" values="0 0 0 0 0.0839728 0 0 0 0 0.0907683 0 0 0 0 0.100962 0 0 0 1 0"/>
<feBlend mode="normal" in2="BackgroundImageFix" result="effect1_dropShadow_122_152"/>
<feBlend mode="normal" in="SourceGraphic" in2="effect1_dropShadow_122_152" result="shape"/>
</filter>
<filter id="filter1_d_122_152" x="-163" y="-167" width="207" height="207" filterUnits="userSpaceOnUse" color-interpolation-filters="sRGB">
<feFlood flood-opacity="0" result="BackgroundImageFix"/>
<feColorMatrix in="SourceAlpha" type="matrix" values="0 0 0 0 0 0 0 0 0 0 0 0 0 0 0 0 0 0 127 0" result="hardAlpha"/>
<feOffset dx="-133" dy="-133"/>
<feGaussianBlur stdDeviation="17"/>
<feComposite in2="hardAlpha" operator="out"/>
<feColorMatrix type="matrix" values="0 0 0 0 0.134615 0 0 0 0 0.130085 0 0 0 0 0.130085 0 0 0 1 0"/>
<feBlend mode="normal" in2="BackgroundImageFix" result="effect1_dropShadow_122_152"/>
<feBlend mode="normal" in="SourceGraphic" in2="effect1_dropShadow_122_152" result="shape"/>
</filter>
<linearGradient id="paint0_linear_122_152" x1="1196.75" y1="1400.89" x2="1905.51" y2="2279.36" gradientUnits="userSpaceOnUse">
<stop stop-color="white"/>
<stop offset="1" stop-color="white" stop-opacity="0"/>
</linearGradient>
<linearGradient id="paint1_linear_122_152" x1="162.889" y1="12" x2="158.422" y2="1186.98" gradientUnits="userSpaceOnUse">
<stop stop-color="white"/>
<stop offset="1" stop-color="white" stop-opacity="0"/>
</linearGradient>
<clipPath id="clip0_122_152">
<rect width="40" height="40" fill="white" transform="translate(4)"/>
</clipPath>
</defs>
</svg>
