<svg width="68" height="40" viewBox="0 0 68 40" fill="none" xmlns="http://www.w3.org/2000/svg">
<g clip-path="url(#clip0_121_32)">
<path d="M33.6099 40.0002C33.3854 40.0002 33.1625 39.9436 32.9658 39.8348L30.9157 38.6691C30.6095 38.5046 30.7589 38.4464 30.8599 38.4129C31.2681 38.2756 31.351 38.2446 31.7868 38.0069C31.8326 37.9818 31.8925 37.9906 31.9394 38.0172L33.5144 38.9149C33.5713 38.9444 33.652 38.9444 33.7047 38.9149L39.8457 35.5103C39.9026 35.4793 39.9395 35.4158 39.9395 35.3508V28.5446C39.9395 28.4767 39.9026 28.4162 39.8445 28.3822L33.7059 24.9806C33.6491 24.9481 33.5737 24.9481 33.5169 24.9806L27.3796 28.3822C27.3201 28.4147 27.2823 28.4782 27.2823 28.5432V35.3494C27.2823 35.4143 27.3191 35.4763 27.3776 35.5073L29.0592 36.4404C29.9723 36.8789 30.5303 36.3622 30.5303 35.8425V29.1249C30.5303 29.0289 30.6087 28.9551 30.7086 28.9551H31.4864C31.5833 28.9551 31.6632 29.0289 31.6632 29.1249V35.8454C31.6632 37.0147 30.9991 37.6865 29.8447 37.6865C29.4896 37.6865 29.2099 37.6865 28.429 37.3174L26.818 36.4257C26.4199 36.2042 26.174 35.7908 26.174 35.3494V28.5432C26.174 28.1002 26.4199 27.6868 26.818 27.4683L32.9652 24.0623C33.3541 23.8511 33.8706 23.8511 34.2564 24.0623L40.3959 27.4698C40.7924 27.6898 41.0399 28.1017 41.0399 28.5446V35.3508C41.0399 35.7923 40.7924 36.2042 40.3959 36.4257L34.2564 39.8317C34.0596 39.941 33.8368 39.9971 33.6092 39.9971" fill="#689F63"/>
<path d="M35.5067 35.3102C32.8198 35.3102 32.2564 34.1255 32.2564 33.1319C32.2564 33.0374 32.3357 32.9621 32.4342 32.9621H33.2274C33.315 32.9621 33.3888 33.0234 33.4026 33.1065C33.5225 33.8828 33.8792 34.2743 35.504 34.2743C36.7983 34.2743 37.3486 33.9935 37.3486 33.3343C37.3486 32.9549 37.1918 32.6729 35.1812 32.4839C33.4995 32.3244 32.4604 31.9686 32.4604 30.6768C32.4604 29.4868 33.5056 28.7781 35.2565 28.7781C37.2225 28.7781 38.1971 29.4336 38.3201 30.8421C38.3247 30.8908 38.3062 30.9381 38.2724 30.9735C38.2386 31.0075 38.1909 31.0282 38.1417 31.0282H37.344C37.2609 31.0282 37.1887 30.9721 37.1718 30.8953C36.9796 30.0788 36.5154 29.8175 35.2534 29.8175C33.8407 29.8175 33.6763 30.29 33.6763 30.6443C33.6763 31.0739 33.8699 31.1994 35.776 31.4415C37.6637 31.6822 38.5599 32.0218 38.5599 33.2959C38.5599 34.5804 37.4439 35.3171 35.4978 35.3171M42.9777 28.099H43.1837C43.3528 28.099 43.385 27.9853 43.385 27.9189C43.385 27.7446 43.2605 27.7446 43.1914 27.7446H42.9792L42.9777 28.099ZM42.7271 27.5409H43.1837C43.3405 27.5409 43.6479 27.5409 43.6479 27.8775C43.6479 28.1123 43.4911 28.161 43.3973 28.1905C43.5803 28.2023 43.5926 28.3175 43.6171 28.4799C43.6294 28.5818 43.6494 28.7574 43.6863 28.8165H43.405C43.3973 28.7574 43.3543 28.4326 43.3543 28.4149C43.3358 28.3426 43.3097 28.3071 43.2159 28.3071H42.9838V28.818H42.7271V27.5409ZM42.1784 28.1757C42.1784 28.7043 42.6226 29.1325 43.1683 29.1325C43.7186 29.1325 44.1628 28.6954 44.1628 28.1757C44.1628 27.6457 43.7125 27.2249 43.1668 27.2249C42.6287 27.2249 42.1768 27.6398 42.1768 28.1743M44.3535 28.1787C44.3535 28.8047 43.8201 29.3155 43.1698 29.3155C42.5242 29.3155 41.9862 28.8106 41.9862 28.1787C41.9862 27.535 42.5365 27.0419 43.1698 27.0419C43.8078 27.0419 44.3519 27.5365 44.3519 28.1787" fill="#689F63"/>
<path fill-rule="evenodd" clip-rule="evenodd" d="M14.5933 13.3688C14.5933 13.0971 14.4442 12.8476 14.2001 12.7125L7.68927 9.11453C7.57936 9.05252 7.45623 9.02004 7.33141 9.01561H7.26409C7.13927 9.02004 7.01614 9.05252 6.90439 9.11453L0.393854 12.7125C0.151288 12.8484 3.05176e-05 13.0979 3.05176e-05 13.3695L0.0143262 23.0606C0.0143262 23.195 0.0865733 23.3205 0.209547 23.3869C0.329446 23.4578 0.480089 23.4578 0.599988 23.3869L4.47058 21.2579C4.715 21.1183 4.8641 20.8714 4.8641 20.6024V16.075C4.8641 15.8048 5.01321 15.5553 5.25685 15.421L6.9047 14.5095C7.02705 14.4415 7.1614 14.4079 7.29821 14.4079C7.43287 14.4079 7.57029 14.4412 7.68927 14.5093L9.33635 15.4205C9.58014 15.5549 9.72986 15.8044 9.72986 16.0746V20.6017C9.72986 20.8704 9.88097 21.1184 10.1241 21.2572L13.9923 23.3847C14.1137 23.4541 14.2648 23.4541 14.3858 23.3847C14.5051 23.3183 14.5807 23.1928 14.5807 23.0584L14.5933 13.3688ZM45.3164 18.4145C45.3164 18.482 45.2791 18.5445 45.2181 18.5778L42.9818 19.8159C42.9211 19.8494 42.8461 19.8494 42.7855 19.8159L40.5489 18.5778C40.4874 18.5443 40.4505 18.4819 40.4505 18.4145V15.9348C40.4505 15.8672 40.4874 15.8048 40.5474 15.7709L42.7824 14.5307C42.8439 14.4968 42.9192 14.4968 42.9807 14.5307L45.2173 15.7709C45.2788 15.8048 45.3157 15.8672 45.3157 15.9348L45.3164 18.4145ZM45.9206 0.0478035C45.7985 -0.0174535 45.65 -0.0156818 45.5295 0.0517897C45.4096 0.119704 45.3355 0.243722 45.3355 0.378074V9.97468C45.3355 10.0692 45.2832 10.1563 45.1981 10.2035C45.1135 10.2508 45.0082 10.2508 44.9229 10.2035L43.292 9.3013C43.0491 9.16635 42.75 9.16635 42.5062 9.3013L35.9932 12.9115C35.7499 13.0459 35.5997 13.2954 35.5997 13.5641V20.7867C35.5997 21.0569 35.7499 21.3049 35.9932 21.4407L42.5062 25.0535C42.7494 25.1878 43.0488 25.1878 43.2928 25.0535L49.8058 21.4392C50.0486 21.3034 50.1993 21.0554 50.1993 20.7852V2.7849C50.1993 2.51088 50.044 2.25886 49.795 2.12495L45.9206 0.0478035ZM67.609 15.8695C67.8509 15.7346 67.9999 15.4854 67.9999 15.2166V13.4662C67.9999 13.1969 67.8508 12.9485 67.6083 12.8129L61.1369 9.20459C60.8924 9.06876 60.5927 9.06876 60.3483 9.20459L53.8368 12.8144C53.5924 12.9502 53.4433 13.1983 53.4433 13.4684V20.688C53.4433 20.9597 53.5955 21.2107 53.8399 21.345L60.3099 24.8869C60.5481 25.0183 60.8402 25.0198 61.0815 24.8914L64.9952 22.8023C65.1181 22.7358 65.1965 22.6103 65.1965 22.4745C65.1965 22.3387 65.1212 22.2117 64.9982 22.1453L58.4468 18.534C58.3238 18.4675 58.2485 18.342 58.2485 18.2077V15.9429C58.2485 15.8077 58.3223 15.683 58.4453 15.6157L60.4836 14.4863C60.605 14.4184 60.7541 14.4184 60.8755 14.4863L62.9154 15.6157C63.0368 15.6822 63.1121 15.8077 63.1121 15.942V17.7225C63.1121 17.8569 63.1874 17.9824 63.3089 18.0503C63.4303 18.1167 63.581 18.1167 63.7024 18.0488L67.609 15.8695Z" fill="#333333"/>
<path fill-rule="evenodd" clip-rule="evenodd" d="M60.6473 15.5317C60.6934 15.5056 60.7512 15.5056 60.798 15.5317L62.0477 16.2241C62.0944 16.2501 62.123 16.2979 62.123 16.3496V17.736C62.123 17.7876 62.0944 17.8355 62.0477 17.8614L60.798 18.5539C60.7512 18.58 60.6934 18.58 60.6473 18.5539L59.3984 17.8614C59.3507 17.8355 59.3215 17.7876 59.3215 17.736V16.3496C59.3215 16.2979 59.3492 16.2501 59.3968 16.2241L60.6473 15.5317Z" fill="#689F63"/>
<mask id="mask0_121_32" style="mask-type:luminance" maskUnits="userSpaceOnUse" x="17" y="9" width="16" height="17">
<path d="M24.7061 9.24065L18.23 12.8308C17.9875 12.9652 17.8387 13.2132 17.8387 13.4813V20.6667C17.8387 20.9349 17.9875 21.1828 18.23 21.3172L24.7066 24.9101C24.9487 25.0441 25.2472 25.0441 25.489 24.9101L31.9645 21.3172C32.2058 21.1828 32.3549 20.9348 32.3549 20.6667V13.4813C32.3549 13.2132 32.2058 12.9652 31.963 12.8308L25.4884 9.24065C25.3669 9.17377 25.2317 9.14026 25.0964 9.14026C24.9611 9.14026 24.8259 9.17377 24.7044 9.24065" fill="white"/>
</mask>
<g mask="url(#mask0_121_32)">
<path d="M38.8993 12.2212L20.6508 3.63L11.294 21.9631L29.5421 30.5547L38.8993 12.2212Z" fill="url(#paint0_linear_121_32)"/>
</g>
<mask id="mask1_121_32" style="mask-type:luminance" maskUnits="userSpaceOnUse" x="17" y="9" width="16" height="17">
<path d="M17.9991 21.1229C18.0611 21.2001 18.1385 21.267 18.2297 21.3172L23.785 24.3991L24.7104 24.91C24.8487 24.9868 25.0065 25.0192 25.1614 25.0082C25.2131 25.0042 25.2647 24.9949 25.3151 24.9811L32.1454 12.9691C32.0931 12.9145 32.032 12.8687 31.9634 12.8304L27.723 10.4784L25.4815 9.23975C25.4178 9.20431 25.3488 9.17922 25.2785 9.1615L17.9991 21.1229Z" fill="white"/>
</mask>
<g mask="url(#mask1_121_32)">
<path d="M10.1091 14.7622L22.9945 31.5124L40.0355 19.4198L27.1494 2.67004L10.1091 14.7622Z" fill="url(#paint1_linear_121_32)"/>
</g>
<mask id="mask2_121_32" style="mask-type:luminance" maskUnits="userSpaceOnUse" x="18" y="9" width="15" height="17">
<path d="M25.0191 9.14441C24.9104 9.15474 24.8042 9.18722 24.7063 9.24067L18.2486 12.8205L25.212 25.0023C25.3088 24.989 25.4041 24.958 25.4902 24.9102L31.9663 21.3172C32.1661 21.2059 32.303 21.0175 32.3445 20.804L25.2458 9.15666C25.1935 9.14677 25.1413 9.1416 25.0875 9.1416C25.066 9.1416 25.0444 9.14263 25.0229 9.14455" fill="white"/>
</mask>
<g mask="url(#mask2_121_32)">
<path d="M18.2486 9.1416V25.0026H32.3418V9.1416H18.2486Z" fill="url(#paint2_linear_121_32)"/>
</g>
</g>
<defs>
<linearGradient id="paint0_linear_121_32" x1="29.7695" y1="7.91208" x2="21.007" y2="26.5234" gradientUnits="userSpaceOnUse">
<stop offset="0.3" stop-color="#3E863D"/>
<stop offset="0.5" stop-color="#55934F"/>
<stop offset="0.8" stop-color="#5AAD45"/>
</linearGradient>
<linearGradient id="paint1_linear_121_32" x1="16.629" y1="23.2333" x2="33.1797" y2="10.501" gradientUnits="userSpaceOnUse">
<stop offset="0.57" stop-color="#3E863D"/>
<stop offset="0.72" stop-color="#619857"/>
<stop offset="1" stop-color="#76AC64"/>
</linearGradient>
<linearGradient id="paint2_linear_121_32" x1="18.2533" y1="17.0725" x2="32.3445" y2="17.0725" gradientUnits="userSpaceOnUse">
<stop offset="0.16" stop-color="#6BBF47"/>
<stop offset="0.38" stop-color="#79B461"/>
<stop offset="0.47" stop-color="#75AC64"/>
<stop offset="0.7" stop-color="#659E5A"/>
<stop offset="0.9" stop-color="#3E863D"/>
</linearGradient>
<clipPath id="clip0_121_32">
<rect width="68" height="40" fill="white"/>
</clipPath>
</defs>
</svg>
