<svg width="75" height="70" viewBox="0 0 75 70" fill="none" xmlns="http://www.w3.org/2000/svg">
<g filter="url(#filter0_d_121_22)">
<g filter="url(#filter1_d_121_22)">
<path d="M37.3927 26.1238C34.9265 26.1238 32.9272 28.0811 32.9272 30.4956C32.9272 32.9102 34.9265 34.8675 37.3927 34.8675C39.859 34.8675 41.8582 32.9102 41.8582 30.4956C41.8582 28.0811 39.859 26.1238 37.3927 26.1238Z" fill="#087EA4"/>
<path d="M60.6183 30.5353C60.6183 27.103 57.3719 24.0927 52.2028 22.1117C52.2719 21.6655 52.3344 21.2242 52.3788 20.791C52.8886 15.8592 51.6749 12.2997 48.9629 10.7664C45.9286 9.05109 41.6427 10.2961 37.3092 13.6913C32.9756 10.2961 28.6897 9.05109 25.6554 10.7664C22.9434 12.2997 21.7297 15.8592 22.2395 20.791C22.2839 21.2242 22.3448 21.6671 22.4155 22.1149C21.9846 22.276 21.562 22.4467 21.1557 22.6255C16.5409 24.6565 14 27.4686 14 30.5353C14 33.9675 17.2465 36.9778 22.4155 38.9588C22.3448 39.405 22.2839 39.8463 22.2395 40.2796C21.7297 45.2113 22.9434 48.7708 25.6554 50.3041C26.5878 50.8218 27.6444 51.0864 28.716 51.0708C31.2849 51.0708 34.2847 49.7468 37.3092 47.3792C40.332 49.7468 43.3334 51.0708 45.9056 51.0708C46.9772 51.0862 48.0337 50.8215 48.9662 50.3041C51.6782 48.7708 52.8919 45.2113 52.3821 40.2796C52.3377 39.8463 52.2752 39.405 52.2061 38.9588C57.3751 36.981 60.6216 33.9659 60.6216 30.5353M45.8858 12.1741C46.5749 12.1578 47.256 12.3212 47.8594 12.6476C49.7425 13.7122 50.5878 16.6001 50.1767 20.5703C50.1487 20.8409 50.1158 21.1147 50.0763 21.3901C47.927 20.7562 45.7261 20.3041 43.4979 20.0388C42.1471 18.2804 40.645 16.6385 39.0081 15.1312C41.5786 13.1856 43.9912 12.1741 45.8842 12.1741M45.001 34.884C44.1693 36.2978 43.2635 37.6687 42.2874 38.9911C40.6329 39.1575 38.9707 39.2403 37.3075 39.2391C35.6449 39.2402 33.9832 39.1574 32.3293 38.9911C31.3558 37.6686 30.4528 36.2978 29.6239 34.884C28.7921 33.474 28.0362 32.0225 27.3592 30.5353C28.0362 29.048 28.7921 27.5965 29.6239 26.1866C30.4515 24.7784 31.3517 23.4125 32.321 22.094C33.978 21.9234 35.643 21.8385 37.3092 21.8395C38.9718 21.8385 40.6334 21.9213 42.2874 22.0875C43.2601 23.4081 44.1636 24.7762 44.9945 26.1866C45.8256 27.5968 46.5815 29.0483 47.2591 30.5353C46.5815 32.0222 45.8256 33.4737 44.9945 34.884M48.3906 33.2733C48.9126 34.6672 49.3411 36.093 49.6734 37.5415C48.2312 37.9818 46.7611 38.3288 45.2724 38.5804C45.8382 37.745 46.3864 36.8758 46.917 35.9727C47.4417 35.0805 47.9334 34.1801 48.3972 33.2798M34.186 41.3152C35.209 41.3764 36.2533 41.4118 37.3108 41.4118C38.3683 41.4118 39.4192 41.3764 40.4438 41.3152C39.4723 42.4547 38.4258 43.5308 37.3108 44.5365C36.1983 43.5309 35.1544 42.4549 34.186 41.3152ZM29.3476 38.5771C27.8584 38.3267 26.3877 37.9808 24.9449 37.5415C25.2759 36.0952 25.7028 34.6717 26.2228 33.2798C26.68 34.1801 27.1701 35.0805 27.703 35.9727C28.2358 36.865 28.7868 37.7444 29.3476 38.5804M26.2228 27.7891C25.7046 26.4024 25.2789 24.9842 24.9482 23.5435C26.3874 23.1037 27.8542 22.7557 29.3393 22.5014C28.7769 23.3341 28.2259 24.1974 27.6947 25.0978C27.1635 25.9981 26.6784 26.8872 26.2146 27.7891M40.4339 19.7537C39.411 19.6925 38.3667 19.6571 37.3009 19.6571C36.244 19.6571 35.2024 19.6893 34.1762 19.7537C35.1445 18.6141 36.1884 17.538 37.3009 16.5325C38.4163 17.5377 39.4629 18.6138 40.4339 19.7537ZM46.9137 25.0978C46.3809 24.1937 45.8299 23.3239 45.2609 22.4886C46.7535 22.7401 48.2275 23.0877 49.6734 23.529C49.3416 24.9751 48.9148 26.3986 48.3955 27.7908C47.9383 26.8904 47.4466 25.9901 46.9154 25.0994M24.4483 20.5719C24.0322 16.6033 24.8824 13.7139 26.7639 12.6492C27.3674 12.3234 28.0484 12.16 28.7374 12.1757C30.6304 12.1757 33.043 13.1872 35.6136 15.1328C33.9755 16.6412 32.4723 18.2841 31.1205 20.0436C28.8928 20.3102 26.6922 20.7606 24.542 21.3901C24.5042 21.1147 24.4696 20.8425 24.4433 20.5719M22.0668 24.6081C22.3201 24.5008 22.5783 24.3934 22.8415 24.286C23.3588 26.4234 24.0603 28.514 24.9384 30.5353C24.0586 32.5605 23.3566 34.6555 22.8398 36.7974C18.6493 35.1143 16.2202 32.7821 16.2202 30.5353C16.2202 28.406 18.3582 26.2462 22.0668 24.6081ZM26.7639 48.4213C24.8824 47.3567 24.0322 44.4672 24.4483 40.4986C24.4746 40.228 24.5091 39.9558 24.5469 39.6788C26.6963 40.3125 28.8972 40.7646 31.1254 41.0301C32.4766 42.7892 33.9787 44.4321 35.6152 45.9409C32.0316 48.6516 28.7572 49.5455 26.7688 48.4213M50.175 40.4986C50.5862 44.4688 49.7408 47.3567 47.8577 48.4213C45.871 49.5487 42.595 48.6516 39.013 45.9409C40.649 44.432 42.1505 42.7891 43.5012 41.0301C45.7294 40.7648 47.9303 40.3127 50.0796 39.6788C50.1191 39.9558 50.152 40.228 50.1799 40.4986M51.7884 36.7942C51.2702 34.6535 50.5676 32.5597 49.6882 30.5353C50.5672 28.5097 51.2693 26.4149 51.7867 24.2731C55.969 25.9562 58.4047 28.2884 58.4047 30.5353C58.4047 32.7821 55.9756 35.1143 51.7851 36.7974" fill="#087EA4"/>
</g>
</g>
<defs>
<filter id="filter0_d_121_22" x="0" y="0" width="74.6216" height="69.0714" filterUnits="userSpaceOnUse" color-interpolation-filters="sRGB">
<feFlood flood-opacity="0" result="BackgroundImageFix"/>
<feColorMatrix in="SourceAlpha" type="matrix" values="0 0 0 0 0 0 0 0 0 0 0 0 0 0 0 0 0 0 127 0" result="hardAlpha"/>
<feOffset dy="4"/>
<feGaussianBlur stdDeviation="7"/>
<feComposite in2="hardAlpha" operator="out"/>
<feColorMatrix type="matrix" values="0 0 0 0 0.140278 0 0 0 0 0.101378 0 0 0 0 0.490385 0 0 0 0.25 0"/>
<feBlend mode="normal" in2="BackgroundImageFix" result="effect1_dropShadow_121_22"/>
<feBlend mode="normal" in="SourceGraphic" in2="effect1_dropShadow_121_22" result="shape"/>
</filter>
<filter id="filter1_d_121_22" x="0" y="0" width="74.6216" height="69.0714" filterUnits="userSpaceOnUse" color-interpolation-filters="sRGB">
<feFlood flood-opacity="0" result="BackgroundImageFix"/>
<feColorMatrix in="SourceAlpha" type="matrix" values="0 0 0 0 0 0 0 0 0 0 0 0 0 0 0 0 0 0 127 0" result="hardAlpha"/>
<feOffset dy="4"/>
<feGaussianBlur stdDeviation="7"/>
<feComposite in2="hardAlpha" operator="out"/>
<feColorMatrix type="matrix" values="0 0 0 0 0.5386 0 0 0 0 0.760074 0 0 0 0 0.918269 0 0 0 0.72 0"/>
<feBlend mode="normal" in2="BackgroundImageFix" result="effect1_dropShadow_121_22"/>
<feBlend mode="normal" in="SourceGraphic" in2="effect1_dropShadow_121_22" result="shape"/>
</filter>
</defs>
</svg>
