<svg width="47" height="42" viewBox="0 0 47 42" fill="none" xmlns="http://www.w3.org/2000/svg">
<path d="M23.3927 16.1238C20.9265 16.1238 18.9272 18.0811 18.9272 20.4956C18.9272 22.9102 20.9265 24.8675 23.3927 24.8675C25.859 24.8675 27.8582 22.9102 27.8582 20.4956C27.8582 18.0811 25.859 16.1238 23.3927 16.1238Z" fill="#087EA4"/>
<path d="M46.6183 20.5353C46.6183 17.103 43.3719 14.0927 38.2028 12.1117C38.2719 11.6655 38.3344 11.2242 38.3788 10.791C38.8886 5.85922 37.6749 2.29973 34.9629 0.766411C31.9286 -0.948908 27.6427 0.296107 23.3092 3.69131C18.9756 0.296107 14.6897 -0.948908 11.6554 0.766411C8.94343 2.29973 7.7297 5.85922 8.23953 10.791C8.28394 11.2242 8.34479 11.6671 8.41551 12.1149C7.98462 12.276 7.56195 12.4467 7.15573 12.6255C2.54093 14.6565 0 17.4686 0 20.5353C0 23.9675 3.24648 26.9778 8.41551 28.9588C8.34479 29.405 8.28394 29.8463 8.23953 30.2796C7.7297 35.2113 8.94343 38.7708 11.6554 40.3041C12.5878 40.8218 13.6444 41.0864 14.716 41.0708C17.2849 41.0708 20.2847 39.7468 23.3092 37.3792C26.332 39.7468 29.3334 41.0708 31.9056 41.0708C32.9772 41.0862 34.0337 40.8215 34.9662 40.3041C37.6782 38.7708 38.8919 35.2113 38.3821 30.2796C38.3377 29.8463 38.2752 29.405 38.2061 28.9588C43.3751 26.981 46.6216 23.9659 46.6216 20.5353M31.8858 2.1741C32.5749 2.15782 33.256 2.32125 33.8594 2.64762C35.7425 3.71225 36.5878 6.60011 36.1767 10.5703C36.1487 10.8409 36.1158 11.1147 36.0763 11.3901C33.927 10.7562 31.7261 10.3041 29.4979 10.0388C28.1471 8.28039 26.645 6.63853 25.0081 5.13121C27.5786 3.18557 29.9912 2.1741 31.8842 2.1741M31.001 24.884C30.1693 26.2978 29.2635 27.6687 28.2874 28.9911C26.6329 29.1575 24.9707 29.2403 23.3075 29.2391C21.6449 29.2402 19.9832 29.1574 18.3293 28.9911C17.3558 27.6686 16.4528 26.2977 15.6239 24.884C14.7921 23.474 14.0362 22.0225 13.3592 20.5353C14.0362 19.048 14.7921 17.5965 15.6239 16.1866C16.4515 14.7784 17.3517 13.4125 18.321 12.094C19.978 11.9234 21.643 11.8385 23.3092 11.8395C24.9718 11.8385 26.6334 11.9213 28.2874 12.0875C29.2601 13.4081 30.1636 14.7762 30.9945 16.1866C31.8256 17.5968 32.5815 19.0483 33.2591 20.5353C32.5815 22.0222 31.8256 23.4737 30.9945 24.884M34.3906 23.2733C34.9126 24.6672 35.3411 26.093 35.6734 27.5415C34.2312 27.9818 32.7611 28.3288 31.2724 28.5804C31.8382 27.745 32.3864 26.8758 32.917 25.9727C33.4417 25.0805 33.9334 24.1801 34.3972 23.2798M20.186 31.3152C21.209 31.3764 22.2533 31.4118 23.3108 31.4118C24.3683 31.4118 25.4192 31.3764 26.4438 31.3152C25.4723 32.4547 24.4258 33.5308 23.3108 34.5365C22.1983 33.5309 21.1544 32.4549 20.186 31.3152ZM15.3476 28.5771C13.8584 28.3267 12.3877 27.9808 10.9449 27.5415C11.2759 26.0952 11.7028 24.6717 12.2228 23.2798C12.68 24.1801 13.1701 25.0805 13.703 25.9727C14.2358 26.865 14.7868 27.7444 15.3476 28.5804M12.2228 17.7891C11.7046 16.4024 11.2789 14.9842 10.9482 13.5435C12.3874 13.1037 13.8542 12.7557 15.3393 12.5014C14.7769 13.3341 14.2259 14.1974 13.6947 15.0978C13.1635 15.9981 12.6784 16.8872 12.2146 17.7891M26.4339 9.75372C25.411 9.69251 24.3667 9.65708 23.3009 9.65708C22.244 9.65708 21.2024 9.68929 20.1762 9.75372C21.1445 8.61405 22.1884 7.53798 23.3009 6.53246C24.4163 7.53772 25.4629 8.6138 26.4339 9.75372ZM32.9137 15.0978C32.3809 14.1937 31.8299 13.3239 31.2609 12.4886C32.7535 12.7401 34.2275 13.0877 35.6734 13.529C35.3416 14.9751 34.9148 16.3986 34.3955 17.7908C33.9383 16.8904 33.4466 15.9901 32.9154 15.0994M10.4483 10.5719C10.0322 6.60333 10.8824 3.71386 12.7639 2.64924C13.3674 2.32336 14.0484 2.15997 14.7374 2.17571C16.6304 2.17571 19.043 3.18719 21.6136 5.13282C19.9755 6.64121 18.4723 8.28414 17.1205 10.0436C14.8928 10.3102 12.6922 10.7606 10.542 11.3901C10.5042 11.1147 10.4696 10.8425 10.4433 10.5719M8.06685 14.6081C8.32012 14.5008 8.57833 14.3934 8.84146 14.286C9.35878 16.4234 10.0603 18.514 10.9384 20.5353C10.0586 22.5605 9.35655 24.6555 8.83982 26.7974C4.64933 25.1143 2.22023 22.7821 2.22023 20.5353C2.22023 18.406 4.35824 16.2462 8.06685 14.6081ZM12.7639 38.4213C10.8824 37.3567 10.0322 34.4672 10.4483 30.4986C10.4746 30.228 10.5091 29.9558 10.5469 29.6788C12.6963 30.3125 14.8972 30.7646 17.1254 31.0301C18.4766 32.7892 19.9787 34.4321 21.6152 35.9409C18.0316 38.6516 14.7572 39.5455 12.7688 38.4213M36.175 30.4986C36.5862 34.4688 35.7408 37.3567 33.8577 38.4213C31.871 39.5487 28.595 38.6516 25.013 35.9409C26.649 34.432 28.1505 32.7891 29.5012 31.0301C31.7294 30.7648 33.9303 30.3127 36.0796 29.6788C36.1191 29.9558 36.152 30.228 36.1799 30.4986M37.7884 26.7942C37.2702 24.6535 36.5676 22.5597 35.6882 20.5353C36.5672 18.5097 37.2693 16.4149 37.7867 14.2731C41.969 15.9562 44.4047 18.2884 44.4047 20.5353C44.4047 22.7821 41.9756 25.1143 37.7851 26.7974" fill="#087EA4"/>
</svg>
