<svg width="34" height="51" viewBox="0 0 34 51" fill="none" xmlns="http://www.w3.org/2000/svg">
<g clip-path="url(#clip0_121_52)">
<path d="M17 25.5C17 20.8535 20.7668 17.0865 25.4135 17.0865C30.06 17.0865 33.8269 20.8535 33.8269 25.5C33.8269 30.1467 30.06 33.9135 25.4135 33.9135C20.7668 33.9135 17 30.1467 17 25.5Z" fill="#1ABCFE"/>
<path d="M0.173065 42.3269C0.173065 37.6804 3.9399 33.9135 8.58653 33.9135H17V42.3269C17 46.9736 13.2332 50.7404 8.58653 50.7404C3.9399 50.7404 0.173065 46.9736 0.173065 42.3269Z" fill="#0ACF83"/>
<path d="M17 0.259644V17.0865H25.4135C30.0601 17.0865 33.8269 13.3197 33.8269 8.6731C33.8269 4.02648 30.0601 0.259644 25.4135 0.259644H17Z" fill="#FF7262"/>
<path d="M0.173065 8.67311C0.173065 13.3197 3.9399 17.0865 8.58653 17.0865H17V0.259644H8.58653C3.9399 0.259644 0.173065 4.02648 0.173065 8.67311Z" fill="#F24E1E"/>
<path d="M0.173065 25.5C0.173065 30.1467 3.9399 33.9135 8.58653 33.9135H17V17.0865H8.58653C3.9399 17.0865 0.173065 20.8535 0.173065 25.5Z" fill="#A259FF"/>
</g>
<defs>
<clipPath id="clip0_121_52">
<rect width="34" height="51" fill="white"/>
</clipPath>
</defs>
</svg>
