<svg width="46" height="46" viewBox="0 0 46 46" fill="none" xmlns="http://www.w3.org/2000/svg">
<g clip-path="url(#clip0_121_29)" filter="url(#filter0_d_121_29)">
<path d="M5.425 0H40.575C41.362 0 42 0.637991 42 1.425V36.575C42 37.362 41.362 38 40.575 38H5.425C4.63799 38 4 37.362 4 36.575V1.425C4 0.637991 4.63799 0 5.425 0Z" fill="white"/>
<path d="M5.425 0H40.575C41.362 0 42 0.637991 42 1.425V36.575C42 37.362 41.362 38 40.575 38H5.425C4.63799 38 4 37.362 4 36.575V1.425C4 0.637991 4.63799 0 5.425 0ZM25.1236 20.216V17.0994H11.5997V20.216H16.428V34.0927H20.2716V20.216H25.1236ZM26.656 33.7263C27.2759 34.0423 28.009 34.2794 28.8554 34.4374C29.7016 34.5953 30.5936 34.6744 31.5313 34.6744C32.4452 34.6744 33.3133 34.5875 34.1358 34.4137C34.9583 34.2399 35.6794 33.9534 36.2993 33.5544C36.9191 33.1554 37.4097 32.6341 37.7713 31.9902C38.1329 31.3462 38.3137 30.5502 38.3137 29.6021C38.3137 28.9148 38.2104 28.3125 38.0039 27.795C37.7972 27.2774 37.4992 26.8172 37.1098 26.4142C36.7205 26.0113 36.2535 25.6499 35.7092 25.3299C35.1648 25.01 34.551 24.7077 33.8676 24.4233C33.367 24.2178 32.918 24.0183 32.5206 23.8248C32.1234 23.6313 31.7856 23.4337 31.5075 23.2323C31.2293 23.0308 31.0148 22.8175 30.8638 22.5923C30.7128 22.3672 30.6373 22.1123 30.6373 21.8279C30.6373 21.5672 30.7049 21.3322 30.84 21.1229C30.975 20.9134 31.1658 20.7337 31.4122 20.5836C31.6584 20.4335 31.9604 20.317 32.318 20.234C32.6757 20.1511 33.0729 20.1096 33.5101 20.1096C33.8278 20.1096 34.1637 20.1333 34.5172 20.1806C34.8709 20.2281 35.2265 20.3012 35.584 20.3999C35.9416 20.4987 36.2893 20.623 36.6271 20.7733C36.9649 20.9234 37.2767 21.0972 37.5628 21.2946V17.7513C36.9827 17.53 36.349 17.366 35.6616 17.2595C34.9741 17.1528 34.1854 17.0994 33.2955 17.0994C32.3895 17.0994 31.5313 17.1962 30.7207 17.3898C29.9102 17.5833 29.1971 17.8856 28.5812 18.2964C27.9653 18.7073 27.4786 19.2306 27.121 19.8665C26.7633 20.5026 26.5846 21.263 26.5846 22.1479C26.5846 23.2778 26.9124 24.2417 27.568 25.0395C28.2235 25.8375 29.2188 26.513 30.554 27.0661C31.0784 27.2795 31.5671 27.4888 32.02 27.6943C32.473 27.8996 32.8644 28.113 33.1941 28.3341C33.524 28.5554 33.7841 28.7963 33.9748 29.057C34.1656 29.3177 34.261 29.614 34.261 29.9459C34.261 30.1909 34.2014 30.418 34.0821 30.6273C33.963 30.8367 33.7822 31.0184 33.5399 31.1724C33.2974 31.3265 32.9955 31.447 32.6339 31.5339C32.2723 31.6208 31.8492 31.6642 31.3644 31.6642C30.538 31.6642 29.7196 31.5201 28.909 31.2318C28.0984 30.9434 27.3475 30.5108 26.656 29.9341V33.7263Z" fill="#3178C6"/>
</g>
<defs>
<filter id="filter0_d_121_29" x="0" y="0" width="46" height="46" filterUnits="userSpaceOnUse" color-interpolation-filters="sRGB">
<feFlood flood-opacity="0" result="BackgroundImageFix"/>
<feColorMatrix in="SourceAlpha" type="matrix" values="0 0 0 0 0 0 0 0 0 0 0 0 0 0 0 0 0 0 127 0" result="hardAlpha"/>
<feOffset dy="4"/>
<feGaussianBlur stdDeviation="2"/>
<feComposite in2="hardAlpha" operator="out"/>
<feColorMatrix type="matrix" values="0 0 0 0 0.624075 0 0 0 0 0.680319 0 0 0 0 0.961538 0 0 0 0.87 0"/>
<feBlend mode="normal" in2="BackgroundImageFix" result="effect1_dropShadow_121_29"/>
<feBlend mode="normal" in="SourceGraphic" in2="effect1_dropShadow_121_29" result="shape"/>
</filter>
<clipPath id="clip0_121_29">
<rect width="38" height="38" fill="white" transform="translate(4)"/>
</clipPath>
</defs>
</svg>
