<svg width="60" height="48" viewBox="0 0 60 48" fill="none" xmlns="http://www.w3.org/2000/svg">
<g filter="url(#filter0_d_122_138)">
<path d="M14.8006 0C11.8335 0 9.63803 2.50766 9.7363 5.22723C9.83061 7.84 9.7081 11.2238 8.82586 13.9834C7.94098 16.7511 6.44444 18.5043 4 18.7294V21.2706C6.44444 21.4957 7.94098 23.2489 8.82586 26.0166C9.7081 28.7762 9.83061 32.16 9.7363 34.7728C9.63803 37.4919 11.8335 40 14.801 40H45.2034C48.1705 40 50.3655 37.4923 50.2672 34.7728C50.1729 32.16 50.2954 28.7762 51.1777 26.0166C52.063 23.2489 53.5556 21.4957 56 21.2706V18.7294C53.5556 18.5043 52.063 16.7511 51.1777 13.9834C50.2954 11.2243 50.1729 7.84 50.2672 5.22723C50.3655 2.50809 48.1705 0 45.2034 0H14.8001H14.8006ZM39.2542 24.6226C39.2542 28.3672 36.3616 30.6383 31.5613 30.6383H23.3898C22.9031 30.6383 22.5085 30.2573 22.5085 29.7872V10.2128C22.5085 9.74274 22.9031 9.3617 23.3898 9.3617H31.5146C35.5173 9.3617 38.1442 11.4553 38.1442 14.6698C38.1442 16.926 36.377 18.946 34.1256 19.2996V19.4174C37.1905 19.7421 39.2542 21.7915 39.2542 24.6226ZM30.6703 12.0596H26.011V18.4145H29.9352C32.9688 18.4145 34.6417 17.2349 34.6417 15.1264C34.6417 13.1506 33.2033 12.0596 30.6703 12.0596ZM26.011 20.9362V27.9396H30.8417C34 27.9396 35.6733 26.7157 35.6733 24.4157C35.6733 22.1153 33.9533 20.9357 30.6385 20.9357H26.011V20.9362Z" fill="#7E13F8"/>
</g>
<defs>
<filter id="filter0_d_122_138" x="0" y="0" width="60" height="48" filterUnits="userSpaceOnUse" color-interpolation-filters="sRGB">
<feFlood flood-opacity="0" result="BackgroundImageFix"/>
<feColorMatrix in="SourceAlpha" type="matrix" values="0 0 0 0 0 0 0 0 0 0 0 0 0 0 0 0 0 0 127 0" result="hardAlpha"/>
<feOffset dy="4"/>
<feGaussianBlur stdDeviation="2"/>
<feComposite in2="hardAlpha" operator="out"/>
<feColorMatrix type="matrix" values="0 0 0 0 0.791995 0 0 0 0 0.614714 0 0 0 0 0.947115 0 0 0 0.93 0"/>
<feBlend mode="normal" in2="BackgroundImageFix" result="effect1_dropShadow_122_138"/>
<feBlend mode="normal" in="SourceGraphic" in2="effect1_dropShadow_122_138" result="shape"/>
</filter>
</defs>
</svg>
